<?xml version="1.0" encoding="utf-8"?>
<!-- Generator: Adobe Illustrator 25.2.1, SVG Export Plug-In . SVG Version: 6.00 Build 0)  -->
<svg version="1.1" id="Capa_1" xmlns="http://www.w3.org/2000/svg" xmlns:xlink="http://www.w3.org/1999/xlink" x="0px" y="0px"
	 viewBox="0 0 713.6 156.4" style="enable-background:new 0 0 713.6 156.4;" xml:space="preserve">
<style type="text/css">
	.st0{fill:#FFFFFF;}
</style>
<g>
	<path class="st0" d="M46.6,124.8H24.1c-2,0-3.6-1.6-3.6-3.6V27.8c0-2,1.6-3.6,3.6-3.6h22.6c2,0,3.6,1.6,3.6,3.6v93.3
		C50.3,123.2,48.6,124.8,46.6,124.8z"/>
</g>
<g>
	<path class="st0" d="M80.2,124.8H57.6c-2,0-3.6-1.6-3.6-3.6V27.8c0-2,1.6-3.6,3.6-3.6h22.6c2,0,3.6,1.6,3.6,3.6v93.3
		C83.8,123.2,82.2,124.8,80.2,124.8z"/>
</g>
<g>
	<path class="st0" d="M113.7,124.8H91.1c-2,0-3.6-1.6-3.6-3.6V27.8c0-2,1.6-3.6,3.6-3.6h22.6c2,0,3.6,1.6,3.6,3.6v93.3
		C117.3,123.2,115.7,124.8,113.7,124.8z"/>
</g>
<g>
	<path class="st0" d="M178.2,117l-21.3,7.6c-1.9,0.7-3.9-0.3-4.6-2.2l-31.5-87.9c-0.7-1.9,0.3-3.9,2.2-4.6l21.3-7.6
		c1.9-0.7,3.9,0.3,4.6,2.2l31.5,87.9C181.1,114.2,180.1,116.3,178.2,117z"/>
</g>
<g>
	<rect x="14.6" y="127" class="st0" width="184" height="7.3"/>
</g>
<g>
	<g>
		<path class="st0" d="M227,110.1c-0.6,0-1.1-0.2-1.5-0.6c-0.3-0.4-0.5-0.8-0.5-1.4V51.7c0-0.6,0.2-1,0.5-1.4
			c0.3-0.4,0.8-0.6,1.5-0.6h4.6c0.6,0,1,0.2,1.4,0.6c0.3,0.4,0.5,0.9,0.5,1.4v50.9h28.7c0.6,0,1.1,0.2,1.5,0.6
			c0.3,0.4,0.5,0.9,0.5,1.5v3.5c0,0.6-0.2,1.1-0.5,1.4c-0.3,0.4-0.8,0.6-1.5,0.6H227z"/>
		<path class="st0" d="M273.8,56.9c-0.6,0-1.1-0.2-1.4-0.6c-0.4-0.4-0.6-0.8-0.6-1.4v-4.7c0-0.6,0.2-1,0.6-1.4
			c0.4-0.4,0.8-0.6,1.4-0.6h5.4c0.6,0,1,0.2,1.4,0.6c0.4,0.4,0.6,0.8,0.6,1.4v4.7c0,0.6-0.2,1.1-0.6,1.4c-0.4,0.4-0.8,0.6-1.4,0.6
			H273.8z M274.5,110.1c-0.6,0-1.1-0.2-1.4-0.6c-0.4-0.4-0.6-0.8-0.6-1.4V67.2c0-0.6,0.2-1,0.6-1.4c0.4-0.4,0.8-0.6,1.4-0.6h4.1
			c0.6,0,1,0.2,1.4,0.6c0.3,0.4,0.5,0.9,0.5,1.4v40.9c0,0.6-0.2,1.1-0.5,1.4c-0.3,0.4-0.8,0.6-1.4,0.6H274.5z"/>
		<path class="st0" d="M315.6,111c-3.5,0-6.3-0.6-8.6-1.9c-2.3-1.2-4.1-2.8-5.5-4.6v3.6c0,0.6-0.2,1.1-0.6,1.4
			c-0.4,0.4-0.9,0.6-1.4,0.6h-4c-0.6,0-1.1-0.2-1.4-0.6c-0.4-0.4-0.6-0.8-0.6-1.4V50.8c0-0.6,0.2-1,0.6-1.4c0.4-0.4,0.8-0.6,1.4-0.6
			h4.1c0.6,0,1.1,0.2,1.5,0.6c0.3,0.4,0.5,0.9,0.5,1.4v19.9c1.4-1.8,3.3-3.3,5.6-4.5c2.3-1.2,5.1-1.8,8.4-1.8c3.2,0,6,0.6,8.2,1.7
			c2.3,1.1,4.1,2.7,5.6,4.6c1.5,2,2.6,4.2,3.3,6.6c0.7,2.5,1.2,5.1,1.2,7.8c0.1,0.9,0.1,1.8,0.1,2.6c0,0.8,0,1.7-0.1,2.6
			c-0.1,2.8-0.5,5.4-1.2,7.9c-0.7,2.5-1.9,4.7-3.3,6.6c-1.5,1.9-3.3,3.5-5.6,4.6C321.5,110.4,318.8,111,315.6,111z M313.8,104
			c3,0,5.3-0.6,7-1.9c1.7-1.3,2.9-3,3.7-5.1c0.7-2.1,1.2-4.4,1.3-6.8c0.1-1.7,0.1-3.3,0-5c-0.1-2.4-0.5-4.7-1.3-6.8
			c-0.7-2.1-2-3.8-3.7-5.1c-1.7-1.3-4-1.9-7-1.9c-2.7,0-5,0.6-6.7,1.9c-1.8,1.3-3.1,2.9-4,4.8c-0.9,2-1.4,3.9-1.4,6
			c-0.1,0.9-0.1,2-0.1,3.3s0,2.4,0.1,3.3c0.1,2.1,0.6,4.2,1.4,6.3c0.8,2,2.1,3.7,3.9,5.1C308.7,103.4,310.9,104,313.8,104z"/>
		<path class="st0" d="M346.7,110.1c-0.6,0-1.1-0.2-1.4-0.6c-0.4-0.4-0.6-0.8-0.6-1.4V67.3c0-0.6,0.2-1.1,0.6-1.5
			c0.4-0.4,0.8-0.6,1.4-0.6h4c0.6,0,1.1,0.2,1.5,0.6c0.4,0.4,0.6,0.9,0.6,1.5v3.8c1.2-2,2.7-3.4,4.7-4.4c2-1,4.4-1.5,7.3-1.5h3.5
			c0.6,0,1,0.2,1.4,0.6c0.3,0.4,0.5,0.9,0.5,1.4v3.5c0,0.6-0.2,1-0.5,1.4c-0.3,0.3-0.8,0.5-1.4,0.5h-5.2c-3.1,0-5.6,0.9-7.3,2.7
			c-1.8,1.8-2.7,4.3-2.7,7.4v25.4c0,0.6-0.2,1.1-0.6,1.4c-0.4,0.4-0.9,0.6-1.5,0.6H346.7z"/>
		<path class="st0" d="M395.4,111c-5.9,0-10.6-1.8-14.2-5.5c-3.5-3.7-5.4-8.6-5.8-15c-0.1-0.7-0.1-1.7-0.1-2.9c0-1.2,0-2.1,0.1-2.9
			c0.2-4.1,1.2-7.7,2.8-10.7c1.7-3.1,4-5.5,6.9-7.1c2.9-1.7,6.3-2.5,10.2-2.5c4.4,0,8,0.9,11,2.8c3,1.8,5.2,4.5,6.8,7.9
			c1.6,3.4,2.3,7.4,2.3,11.9v1.5c0,0.6-0.2,1.1-0.6,1.5c-0.4,0.3-0.9,0.5-1.4,0.5h-29.9c0,0.1,0,0.2,0,0.3c0,0.2,0,0.3,0,0.4
			c0.1,2.4,0.6,4.6,1.6,6.6c0.9,2,2.2,3.7,4,5c1.7,1.3,3.8,1.9,6.2,1.9c2.1,0,3.8-0.3,5.2-0.9c1.4-0.6,2.5-1.3,3.4-2.1
			s1.4-1.4,1.7-1.8c0.5-0.7,0.9-1.2,1.2-1.3c0.3-0.1,0.7-0.2,1.4-0.2h4.1c0.6,0,1,0.2,1.4,0.5c0.4,0.3,0.5,0.8,0.5,1.3
			c-0.1,0.9-0.5,1.9-1.4,3.2c-0.9,1.2-2.1,2.5-3.7,3.7c-1.6,1.2-3.6,2.2-5.9,3C401.1,110.6,398.4,111,395.4,111z M383.7,84.4h23.7
			v-0.3c0-2.6-0.5-4.9-1.4-6.9c-0.9-2-2.3-3.6-4.1-4.8c-1.8-1.2-3.9-1.8-6.4-1.8c-2.5,0-4.6,0.6-6.3,1.8c-1.8,1.2-3.1,2.8-4,4.8
			c-0.9,2-1.4,4.3-1.4,6.9V84.4z"/>
		<path class="st0" d="M427.9,110.1c-0.6,0-1.1-0.2-1.4-0.6c-0.4-0.4-0.6-0.8-0.6-1.4V67.3c0-0.6,0.2-1.1,0.6-1.5
			c0.4-0.4,0.8-0.6,1.4-0.6h4c0.6,0,1.1,0.2,1.5,0.6c0.4,0.4,0.6,0.9,0.6,1.5v3.8c1.2-2,2.7-3.4,4.7-4.4c2-1,4.4-1.5,7.3-1.5h3.5
			c0.6,0,1,0.2,1.4,0.6c0.3,0.4,0.5,0.9,0.5,1.4v3.5c0,0.6-0.2,1-0.5,1.4c-0.3,0.3-0.8,0.5-1.4,0.5h-5.2c-3.1,0-5.6,0.9-7.3,2.7
			c-1.8,1.8-2.7,4.3-2.7,7.4v25.4c0,0.6-0.2,1.1-0.6,1.4c-0.4,0.4-0.9,0.6-1.5,0.6H427.9z"/>
		<path class="st0" d="M460.7,110.1c-0.6,0-1.1-0.2-1.4-0.6c-0.4-0.4-0.6-0.8-0.6-1.4V67.2c0-0.6,0.2-1,0.6-1.4
			c0.4-0.4,0.8-0.6,1.4-0.6h4.1c0.6,0,1,0.2,1.4,0.6c0.3,0.4,0.5,0.9,0.5,1.4v40.9c0,0.6-0.2,1.1-0.5,1.4c-0.3,0.4-0.8,0.6-1.4,0.6
			H460.7z M460.3,58.8c-0.9,0-1.4-0.5-1.4-1.4c0-0.5,0.1-0.8,0.4-1.1l6.5-7.8c0.5-0.6,1-1,1.4-1.3c0.4-0.2,1-0.3,1.8-0.3h5.9
			c1.1,0,1.6,0.5,1.6,1.6c0,0.4-0.1,0.7-0.4,1l-10,8.2c-0.5,0.4-0.9,0.7-1.3,0.8c-0.4,0.1-0.9,0.2-1.6,0.2H460.3z"/>
		<path class="st0" d="M492.1,111c-2.9,0-5.5-0.6-7.9-1.7c-2.4-1.2-4.3-2.7-5.7-4.7c-1.4-2-2.2-4.2-2.2-6.6c0-4,1.6-7.1,4.8-9.5
			c3.2-2.4,7.4-3.9,12.6-4.7l12.9-1.8v-2.5c0-2.8-0.8-4.9-2.4-6.5c-1.6-1.6-4.2-2.3-7.7-2.3c-2.6,0-4.7,0.5-6.3,1.6
			c-1.6,1-2.7,2.4-3.3,4c-0.3,0.9-0.9,1.3-1.8,1.3h-3.9c-0.6,0-1.1-0.2-1.4-0.6c-0.3-0.4-0.5-0.8-0.5-1.3c0-0.9,0.3-1.9,1-3.2
			c0.7-1.3,1.7-2.5,3.1-3.7c1.4-1.2,3.2-2.2,5.3-3.1c2.2-0.8,4.8-1.3,7.9-1.3c3.5,0,6.4,0.4,8.7,1.3c2.4,0.9,4.2,2.1,5.6,3.6
			c1.4,1.5,2.3,3.2,2.9,5.1s0.9,3.8,0.9,5.8v28c0,0.6-0.2,1.1-0.6,1.4c-0.4,0.4-0.8,0.6-1.4,0.6h-4c-0.6,0-1.1-0.2-1.5-0.6
			c-0.3-0.4-0.5-0.8-0.5-1.4v-3.7c-0.7,1-1.8,2.1-3,3.1c-1.3,1-2.8,1.8-4.7,2.5S494.9,111,492.1,111z M493.9,104.5
			c2.4,0,4.5-0.5,6.5-1.5c2-1,3.5-2.6,4.6-4.7c1.1-2.1,1.7-4.8,1.7-8v-2.4l-10,1.5c-4.1,0.6-7.2,1.5-9.2,2.9
			c-2.1,1.4-3.1,3.1-3.1,5.1c0,1.6,0.5,3,1.4,4c0.9,1.1,2.2,1.9,3.6,2.4C490.9,104.3,492.4,104.5,493.9,104.5z"/>
		<path class="st0" d="M529.1,110.1c-0.6,0-1.2-0.2-1.6-0.6c-0.4-0.4-0.6-0.9-0.6-1.6V51.9c0-0.6,0.2-1.2,0.6-1.6
			c0.4-0.4,0.9-0.6,1.6-0.6h40.3c0.6,0,1.2,0.2,1.6,0.6c0.4,0.4,0.6,0.9,0.6,1.6V60c0,0.6-0.2,1.2-0.6,1.6c-0.4,0.4-0.9,0.6-1.6,0.6
			h-27.5v11.7h25.6c0.6,0,1.2,0.2,1.6,0.6c0.4,0.4,0.6,1,0.6,1.6v7.5c0,0.6-0.2,1.1-0.6,1.5c-0.4,0.4-0.9,0.6-1.6,0.6h-25.6v12h28.2
			c0.6,0,1.2,0.2,1.6,0.6c0.4,0.4,0.6,0.9,0.6,1.6v8.1c0,0.6-0.2,1.2-0.6,1.6c-0.4,0.4-0.9,0.6-1.6,0.6H529.1z"/>
		<path class="st0" d="M607,111c-5.5,0-10.2-0.9-14.1-2.7c-3.9-1.8-7-4.5-9.2-7.9c-2.2-3.5-3.4-7.7-3.6-12.7
			c-0.1-2.5-0.1-5.1-0.1-7.9c0-2.8,0-5.5,0.1-8c0.2-4.9,1.4-9,3.6-12.4c2.2-3.4,5.3-6,9.2-7.8c4-1.8,8.6-2.7,14-2.7
			c4.3,0,8.1,0.5,11.5,1.6c3.3,1.1,6.1,2.5,8.4,4.3c2.3,1.8,4,3.7,5.2,5.9c1.2,2.1,1.8,4.2,1.9,6.3c0.1,0.5-0.1,0.9-0.5,1.3
			c-0.4,0.3-0.8,0.5-1.3,0.5h-12.6c-0.6,0-1.1-0.1-1.4-0.3c-0.3-0.2-0.6-0.5-0.8-0.9c-0.4-0.9-1-1.8-1.8-2.7
			c-0.8-0.9-1.8-1.8-3.2-2.5c-1.4-0.7-3.1-1-5.3-1c-3.3,0-5.9,0.9-7.7,2.6c-1.9,1.7-2.9,4.5-3.1,8.3c-0.2,5-0.2,10,0,15
			c0.2,4,1.2,6.9,3.2,8.7c2,1.8,4.5,2.7,7.8,2.7c2.2,0,4.1-0.4,5.8-1.1c1.7-0.7,3-1.9,4-3.5c1-1.6,1.5-3.6,1.5-6.1v-1.6h-8.1
			c-0.6,0-1.2-0.2-1.6-0.6s-0.6-1-0.6-1.6v-6.4c0-0.6,0.2-1.2,0.6-1.6c0.4-0.4,1-0.6,1.6-0.6h21.8c0.6,0,1.2,0.2,1.6,0.6
			c0.4,0.4,0.6,1,0.6,1.6v9.8c0,5-1.1,9.2-3.4,12.7c-2.2,3.5-5.4,6.2-9.5,8.1C617.3,110.1,612.5,111,607,111z"/>
		<path class="st0" d="M669.2,111c-5.5,0-10.2-0.9-14.1-2.7c-3.9-1.8-7-4.5-9.2-7.9c-2.2-3.5-3.4-7.7-3.6-12.7
			c-0.1-2.5-0.1-5.1-0.1-7.9c0-2.8,0-5.5,0.1-8c0.2-4.9,1.4-9,3.6-12.4c2.2-3.4,5.3-6,9.2-7.8c4-1.8,8.6-2.7,14-2.7
			c4.3,0,8.1,0.5,11.5,1.6c3.3,1.1,6.1,2.5,8.4,4.3c2.3,1.8,4,3.7,5.2,5.9c1.2,2.1,1.8,4.2,1.9,6.3c0.1,0.5-0.1,0.9-0.5,1.3
			c-0.4,0.3-0.8,0.5-1.3,0.5h-12.6c-0.6,0-1.1-0.1-1.4-0.3c-0.3-0.2-0.6-0.5-0.8-0.9c-0.4-0.9-1-1.8-1.8-2.7
			c-0.8-0.9-1.8-1.8-3.2-2.5c-1.4-0.7-3.1-1-5.3-1c-3.3,0-5.9,0.9-7.7,2.6c-1.9,1.7-2.9,4.5-3.1,8.3c-0.2,5-0.2,10,0,15
			c0.2,4,1.2,6.9,3.2,8.7c2,1.8,4.5,2.7,7.8,2.7c2.2,0,4.1-0.4,5.8-1.1c1.7-0.7,3-1.9,4-3.5c1-1.6,1.5-3.6,1.5-6.1v-1.6h-8.1
			c-0.6,0-1.2-0.2-1.6-0.6s-0.6-1-0.6-1.6v-6.4c0-0.6,0.2-1.2,0.6-1.6c0.4-0.4,1-0.6,1.6-0.6h21.8c0.6,0,1.2,0.2,1.6,0.6
			c0.4,0.4,0.6,1,0.6,1.6v9.8c0,5-1.1,9.2-3.4,12.7c-2.2,3.5-5.4,6.2-9.5,8.1C679.5,110.1,674.7,111,669.2,111z"/>
	</g>
</g>
</svg>
